<svg width="100" height="100" viewBox="0 0 100 100" fill="none" xmlns="http://www.w3.org/2000/svg">
<circle cx="50" cy="50" r="49" fill="#009688" stroke="#000815" stroke-width="2"/>
<path d="M65.5556 23.5853L63.4424 22.3914L64.4336 20.6377L66.5468 21.8313L65.5556 23.5853Z" fill="#808080"/>
<path d="M68.256 25.4644L66.2842 24.0518L67.4571 22.4141L69.429 23.8269L68.256 25.4644Z" fill="#808080"/>
<path d="M70.7303 27.6138L68.9219 25.9967L70.2641 24.4951L72.0728 26.1125L70.7303 27.6138Z" fill="#808080"/>
<path d="M72.9549 30.0191L71.332 28.215L72.8295 26.8682L74.4521 28.6716L72.9549 30.0191Z" fill="#808080"/>
<path d="M74.9155 32.6606L73.4985 30.6922L75.1322 29.5146L76.5508 31.4836L74.9155 32.6606Z" fill="#808080"/>
<path d="M76.5808 35.4989L75.3828 33.3886L77.1354 32.3945L78.3319 34.5045L76.5808 35.4989Z" fill="#808080"/>
<path d="M77.9239 38.485L76.9595 36.259L78.8071 35.458L79.7718 37.6838L77.9239 38.485Z" fill="#808080"/>
<path d="M78.9464 41.6146L78.2251 39.298L80.149 38.6992L80.8699 41.0163L78.9464 41.6146Z" fill="#808080"/>
<path d="M79.6279 44.8362L79.1597 42.4559L81.1362 42.0674L81.6041 44.4476L79.6279 44.8362Z" fill="#808080"/>
<path d="M79.9586 48.1191L79.7495 45.702L81.7566 45.5283L81.966 47.9455L79.9586 48.1191Z" fill="#808080"/>
<path d="M79.9346 51.3865L79.9858 48.9609L81.9998 49.0031L81.9477 51.4287L79.9346 51.3865Z" fill="#808080"/>
<path d="M79.5562 54.6577L79.8694 52.252L81.8677 52.5128L81.553 54.9186L79.5562 54.6577Z" fill="#808080"/>
<path d="M78.8237 57.8572L79.3976 55.5L81.3549 55.9758L80.7808 58.3333L78.8237 57.8572Z" fill="#808080"/>
<path d="M77.7515 60.9606L78.5766 58.6787L80.471 59.363L79.6462 61.6447L77.7515 60.9606Z" fill="#808080"/>
<path d="M76.3477 63.9444L77.4124 61.7637L79.2225 62.6481L78.1587 64.8285L76.3477 63.9444Z" fill="#808080"/>
<path d="M74.6431 66.7477L75.9332 64.6924L77.639 65.7624L76.3503 67.818L74.6431 66.7477Z" fill="#808080"/>
<path d="M72.6289 69.3756L74.134 67.4727L75.7141 68.7212L74.2093 70.6245L72.6289 69.3756Z" fill="#808080"/>
<path d="M70.3813 71.7284L72.0804 69.9971L73.5186 71.4082L71.8192 73.1396L70.3813 71.7284Z" fill="#808080"/>
<path d="M67.8506 73.858L69.7294 72.3232L71.0047 73.8827L69.1253 75.418L67.8506 73.858Z" fill="#808080"/>
<path d="M65.1294 75.6855L67.1626 74.3613L68.2614 76.0496L66.2282 77.3738L65.1294 75.6855Z" fill="#808080"/>
<path d="M62.2217 77.2115L64.3866 76.1133L65.2978 77.9104L63.1337 79.0083L62.2217 77.2115Z" fill="#808080"/>
<path d="M59.1587 78.4212L61.4278 77.5615L62.1403 79.4453L59.8724 80.3044L59.1587 78.4212Z" fill="#808080"/>
<path d="M56.0078 79.2905L58.3548 78.6777L58.865 80.6269L56.5173 81.2397L56.0078 79.2905Z" fill="#808080"/>
<path d="M52.7559 79.8223L55.1558 79.4648L55.4528 81.4568L53.0534 81.8142L52.7559 79.8223Z" fill="#808080"/>
<path d="M49.4551 80.0003L51.8795 79.9043L51.9586 81.9169L49.5342 82.0126L49.4551 80.0003Z" fill="#808080"/>
<path d="M46.1833 79.8213L48.603 79.9879L48.4657 81.9973L46.0454 81.831L46.1833 79.8213Z" fill="#808080"/>
<path d="M42.9422 79.29L45.3309 79.7176L44.9754 81.7008L42.5874 81.2724L42.9422 79.29Z" fill="#808080"/>
<path d="M39.7863 78.4111L42.1138 79.0946L41.5467 81.0278L39.2183 80.3449L39.7863 78.4111Z" fill="#808080"/>
<path d="M36.7112 77.1846L38.9515 78.1158L38.1788 79.976L35.9385 79.0453L36.7112 77.1846Z" fill="#808080"/>
<path d="M33.8126 75.6533L35.9416 76.8164L34.976 78.5841L32.8477 77.4216L33.8126 75.6533Z" fill="#808080"/>
<path d="M31.0758 73.8076L33.0686 75.1926L31.9187 76.8469L29.9268 75.4616L31.0758 73.8076Z" fill="#808080"/>
<path d="M28.568 71.6885L30.3993 73.2802L29.0775 74.8004L27.2461 73.2087L28.568 71.6885Z" fill="#808080"/>
<path d="M26.3043 69.3096L27.9522 71.0904L26.473 72.4582L24.8257 70.6774L26.3043 69.3096Z" fill="#808080"/>
<path d="M24.3187 66.7139L25.7656 68.661L24.1486 69.8619L22.7017 67.9141L24.3187 66.7139Z" fill="#808080"/>
<path d="M22.6142 63.8965L23.8409 65.9896L22.1032 67.0087L20.8765 64.9159L22.6142 63.8965Z" fill="#808080"/>
<path d="M21.2184 60.9053L22.2128 63.1185L20.3756 63.9442L19.3804 61.7318L21.2184 60.9053Z" fill="#808080"/>
<path d="M20.1602 57.8125L20.9137 60.1188L18.9989 60.7447L18.2456 58.4381L20.1602 57.8125Z" fill="#808080"/>
<path d="M19.4331 54.6025L19.9354 56.9766L17.9641 57.3931L17.4624 55.019L19.4331 54.6025Z" fill="#808080"/>
<path d="M19.0568 51.3477L19.3025 53.7622L17.2984 53.9655L17.0532 51.5515L19.0568 51.3477Z" fill="#808080"/>
<path d="M19.0329 48.0369L19.0146 50.4631L17 50.4476L17.0186 48.0215L19.0329 48.0369Z" fill="#808080"/>
<path d="M19.3649 44.7875L19.0854 47.1976L17.0845 46.9658L17.3631 44.5557L19.3649 44.7875Z" fill="#808080"/>
<path d="M20.0519 41.5601L19.5121 43.9252L17.5483 43.4767L18.0884 41.1113L20.0519 41.5601Z" fill="#808080"/>
<path d="M21.0781 38.4479L20.2861 40.7412L18.3823 40.0833L19.1749 37.79L21.0781 38.4479Z" fill="#808080"/>
<path d="M22.4377 35.4527L21.4044 37.6476L19.582 36.79L20.6154 34.5947L22.4377 35.4527Z" fill="#808080"/>
<path d="M24.1039 32.623L22.8443 34.6967L21.1226 33.6511L22.3822 31.5771L24.1039 32.623Z" fill="#808080"/>
<path d="M26.0697 29.9795L24.5937 31.9054L22.9956 30.6804L24.471 28.7539L26.0697 29.9795Z" fill="#808080"/>
<path d="M28.3033 27.5717L26.6278 29.3266L25.1704 27.9356L26.8465 26.1807L28.3033 27.5717Z" fill="#808080"/>
<path d="M30.7717 25.4319L28.9167 26.996L27.6182 25.4557L29.4731 23.8916L30.7717 25.4319Z" fill="#808080"/>
<path d="M33.4867 23.5495L31.473 24.9028L30.3501 23.2305L32.3638 21.877L33.4867 23.5495Z" fill="#808080"/>
<path d="M36.3739 21.983L34.2261 23.1118L33.2891 21.3281L35.4372 20.2002L36.3739 21.983Z" fill="#808080"/>
<path d="M39.4215 20.7278L37.1655 21.6192L36.4253 19.7456L38.6813 18.8545L39.4215 20.7278Z" fill="#808080"/>
<path d="M42.5815 19.8084L40.2424 20.4526L39.7075 18.5107L42.0461 17.8662L42.5815 19.8084Z" fill="#808080"/>
<path d="M45.8022 19.2366L43.4066 19.6281L43.082 17.6405L45.4765 17.249L45.8022 19.2366Z" fill="#808080"/>
<path d="M49.0749 19.0124L46.6525 19.1453L46.542 17.1336L48.9652 17.001L49.0749 19.0124Z" fill="#808080"/>
<path d="M52.3695 19.1423L49.9478 19.0117L50.0559 17L52.4789 17.1312L52.3695 19.1423Z" fill="#808080"/>
<path d="M55.613 19.627L53.2183 19.2344L53.5446 17.2471L55.9379 17.6394L55.613 19.627Z" fill="#808080"/>
<path d="M58.8003 20.4654L56.4629 19.8151L57.0015 17.874L59.3395 18.5243L58.8003 20.4654Z" fill="#808080"/>
<path d="M61.8598 21.6333L59.605 20.7355L60.3501 18.8643L62.6047 19.7624L61.8598 21.6333Z" fill="#808080"/>
<path d="M81.789 49.4736C81.8082 67.3164 67.3598 81.7969 49.5168 81.8158C31.6735 81.8353 17.194 67.3865 17.1748 49.5437C17.1553 31.7006 31.604 17.2204 49.447 17.2012C67.29 17.182 81.7698 31.6305 81.789 49.4736Z" fill="url(#paint0_radial_1127_4191)"/>
<path d="M74.8083 49.4805C74.8228 63.4674 63.4965 74.8188 49.5097 74.8339C35.5232 74.849 24.1722 63.5226 24.1568 49.5357C24.1416 35.5488 35.4679 24.1975 49.4545 24.1826C63.4419 24.1672 74.7926 35.4939 74.8083 49.4805Z" fill="black"/>
<path d="M64.9338 49.4919C64.9434 58.026 58.0326 64.9514 49.4986 64.9604C40.9649 64.9703 34.0399 58.0594 34.0303 49.5257C34.0207 40.9914 40.9312 34.066 49.4649 34.0567C57.9992 34.0473 64.9245 40.9582 64.9338 49.4919Z" fill="url(#paint1_radial_1127_4191)"/>
<g opacity="0.23">
<path d="M52.5843 19.8291L55.479 20.2656L55.4723 20.8078L54.5015 20.6612L54.4806 22.3128L53.5278 22.1695L53.5487 20.5172L52.5776 20.3706L52.5843 19.8291Z" fill="#1A1A1A"/>
<path d="M56.2458 20.458L57.1922 20.6846L56.7865 22.8042L55.8398 22.5779L56.2458 20.458Z" fill="#1A1A1A"/>
<path d="M57.3853 22.9344L58.1824 20.9268L59.7154 21.4409C59.9996 21.5366 60.2101 21.6259 60.3477 21.7091C60.485 21.7923 60.5818 21.8938 60.6382 22.0136C60.695 22.1334 60.6979 22.2576 60.6476 22.3853C60.6034 22.4967 60.5301 22.581 60.4274 22.638C60.3247 22.6953 60.2017 22.7285 60.0589 22.7375C59.9667 22.7427 59.8486 22.7334 59.7035 22.7081C59.8035 22.7695 59.8736 22.8213 59.9135 22.8623C59.9414 22.8902 59.9757 22.9417 60.0188 23.0176C60.0615 23.0926 60.0883 23.1487 60.0982 23.1854L60.3122 23.9166L59.2734 23.5678L59.0256 22.7893C58.9947 22.6892 58.9598 22.6188 58.9209 22.5787C58.8665 22.5255 58.7979 22.4848 58.7132 22.4566L58.6326 22.4295L58.309 23.2441L57.3853 22.9344ZM58.783 22.05L59.171 22.18C59.2129 22.1942 59.2978 22.212 59.4257 22.2344C59.4903 22.2469 59.5479 22.2422 59.6 22.2216C59.652 22.2006 59.6866 22.1683 59.7038 22.1244C59.7297 22.0596 59.7189 21.9999 59.6718 21.9447C59.625 21.8897 59.5171 21.8336 59.3496 21.7777L58.945 21.6419L58.783 22.05Z" fill="#1A1A1A"/>
<path d="M61.7675 22.2002L64.0884 23.2929L63.8141 23.68L62.3614 22.9956L62.1578 23.2839L63.5059 23.9185L63.2441 24.2884L61.8964 23.6538L61.6436 24.0112L63.1385 24.7148L62.8483 25.1254L60.4858 24.013L61.7675 22.2002Z" fill="#1A1A1A"/>
<path d="M52.502 19.6406L55.3967 20.0778L55.3897 20.6193L54.4186 20.4727L54.398 22.1247L53.4455 21.981L53.4667 20.329L52.4956 20.1827L52.502 19.6406Z" fill="#D1D2D1"/>
<path d="M56.1635 20.2686L57.1105 20.4951L56.7045 22.6153L55.7578 22.389L56.1635 20.2686Z" fill="#D1D2D1"/>
<path d="M57.3027 22.7453L58.1002 20.7383L59.6335 21.2522C59.9176 21.3476 60.1285 21.4372 60.2655 21.52C60.4025 21.6035 60.4996 21.705 60.5563 21.8248C60.6133 21.9447 60.6156 22.0686 60.565 22.1962C60.5208 22.3076 60.4475 22.3923 60.3449 22.4493C60.2419 22.506 60.1195 22.5394 59.9755 22.5482C59.8845 22.5537 59.7664 22.5438 59.6222 22.5194C59.721 22.5807 59.7911 22.6322 59.8315 22.6735C59.8592 22.7014 59.8941 22.7532 59.9362 22.8288C59.9793 22.9038 60.006 22.9603 60.0162 22.9969L60.2303 23.7278L59.1906 23.3791L58.9428 22.6008C58.9122 22.5007 58.877 22.4304 58.838 22.3902C58.7834 22.3373 58.7147 22.2966 58.6307 22.2687L58.5495 22.2413L58.2261 23.056L57.3027 22.7453ZM58.7011 21.8612L59.0891 21.9915C59.1312 22.006 59.2156 22.0238 59.3435 22.0462C59.4078 22.0581 59.466 22.0537 59.5172 22.0334C59.5695 22.0124 59.6044 21.9799 59.6219 21.936C59.6474 21.8711 59.6364 21.8112 59.5901 21.7562C59.5425 21.701 59.4354 21.6454 59.2673 21.5893L58.8631 21.4534L58.7011 21.8612Z" fill="#D1D2D1"/>
<path d="M61.6845 22.0117L64.0054 23.1044L63.732 23.4918L62.2787 22.8077L62.0748 23.096L63.4229 23.7303L63.1617 24.0999L61.8134 23.4653L61.5609 23.8228L63.0555 24.5263L62.7659 24.937L60.4028 23.8248L61.6845 22.0117Z" fill="#D1D2D1"/>
<path d="M65.5838 24.0479L67.8744 25.6408L67.4088 26.0031L66.6404 25.4686L65.2211 26.5729L64.4673 26.0491L65.8868 24.9445L65.1185 24.4099L65.5838 24.0479Z" fill="#1A1A1A"/>
<path d="M68.417 26.1133L69.0946 26.6909L66.9256 27.9383L66.2471 27.361L68.417 26.1133Z" fill="#1A1A1A"/>
<path d="M67.3662 28.2949L69.7999 27.2988L70.7728 28.3333C70.9534 28.5256 71.0715 28.6803 71.1276 28.7981C71.1826 28.9156 71.1863 29.0279 71.1363 29.134C71.0866 29.2405 70.9845 29.3251 70.8295 29.3885C70.6945 29.444 70.5552 29.4679 70.4124 29.4603C70.2702 29.4528 70.1286 29.4199 69.9898 29.362C69.9014 29.3248 69.8014 29.2652 69.6891 29.1835C69.7281 29.2695 69.749 29.3356 69.7514 29.3818C69.7531 29.4129 69.7415 29.4635 69.7162 29.5336C69.6917 29.6034 69.6688 29.6532 69.6472 29.6822L69.2241 30.2715L68.5644 29.5694L68.9966 28.9336C69.0531 28.8519 69.0804 28.7891 69.0789 28.7446C69.0737 28.6841 69.0452 28.6256 68.9917 28.5692L68.9399 28.5145L67.9522 28.9185L67.3662 28.2949ZM69.4 28.3258L69.6464 28.5875C69.6734 28.616 69.7357 28.6663 69.834 28.7385C69.8828 28.7757 69.9404 28.7987 70.0058 28.808C70.0707 28.8173 70.1303 28.8112 70.1832 28.7894C70.2621 28.7568 70.3028 28.7117 70.3068 28.6538C70.3095 28.5957 70.2583 28.5093 70.1515 28.3965L69.8947 28.1236L69.4 28.3258Z" fill="#1A1A1A"/>
<path d="M72.0148 29.7666L73.2212 31.5445L72.6416 31.6829L71.886 30.5696L71.4547 30.6726L72.1556 31.7053L71.6019 31.8371L70.9006 30.8046L70.3658 30.9323L71.1423 32.0776L70.5284 32.2242L69.2993 30.414L72.0148 29.7666Z" fill="#1A1A1A"/>
<path d="M65.6689 23.8838L67.9586 25.477L67.4933 25.8394L66.7246 25.3051L65.3062 26.4097L64.5518 25.8853L65.9713 24.7804L65.2027 24.2465L65.6689 23.8838Z" fill="#D1D2D1"/>
<path d="M68.5015 25.9502L69.1791 26.5275L67.0098 27.7749L66.3315 27.1979L68.5015 25.9502Z" fill="#D1D2D1"/>
<path d="M67.4507 28.1306L69.8847 27.1348L70.8581 28.1693C71.0387 28.3612 71.1562 28.5162 71.2121 28.6335C71.2676 28.7515 71.2708 28.8632 71.2208 28.9694C71.1713 29.0758 71.0693 29.1607 70.9145 29.2238C70.7793 29.2794 70.6406 29.3032 70.4975 29.2957C70.355 29.2881 70.2133 29.2553 70.0746 29.1971C69.9859 29.1599 69.8856 29.1005 69.7736 29.0185C69.8134 29.1046 69.8335 29.1706 69.8355 29.2169C69.8379 29.248 69.8259 29.2983 69.8006 29.3684C69.7765 29.4385 69.7535 29.4882 69.732 29.5173L69.3091 30.1065L68.6495 29.4047L69.0814 28.7687C69.1375 28.6875 69.1652 28.6241 69.1631 28.5799C69.1582 28.5197 69.1297 28.461 69.0765 28.4046L69.0247 28.3496L68.0364 28.7536L67.4507 28.1306ZM69.4848 28.1614L69.7314 28.4238C69.7576 28.4523 69.8204 28.5023 69.9184 28.5744C69.9676 28.6116 70.0243 28.6346 70.09 28.6439C70.1555 28.6532 70.2148 28.6468 70.2677 28.625C70.3465 28.5927 70.387 28.5477 70.391 28.4892C70.3937 28.431 70.3428 28.3452 70.2357 28.2321L69.9792 27.959L69.4848 28.1614Z" fill="#D1D2D1"/>
<path d="M72.0996 29.6025L73.306 31.3807L72.7267 31.5189L71.9708 30.4055L71.5389 30.5085L72.2401 31.541L71.686 31.6733L70.9851 30.6405L70.45 30.7685L71.2274 31.9135L70.6126 32.0601L69.3838 30.2499L72.0996 29.6025Z" fill="#D1D2D1"/>
</g>
<g opacity="0.23">
<path d="M46.6646 79.5092L43.7644 79.1154L43.7632 78.5739L44.7354 78.706L44.7323 77.0537L45.6862 77.1831L45.69 78.8351L46.6631 78.9671L46.6646 79.5092Z" fill="#1A1A1A"/>
<path d="M42.9948 78.936L42.0449 78.724L42.4186 76.5977L43.3685 76.81L42.9948 78.936Z" fill="#1A1A1A"/>
<path d="M41.8179 76.4766L41.0501 78.495L39.5101 78.0041C39.2239 77.9131 39.0116 77.827 38.874 77.7455C38.7353 77.6644 38.6367 77.5638 38.5785 77.4451C38.5198 77.3264 38.5146 77.202 38.5634 77.0737C38.6065 76.962 38.6786 76.8762 38.7801 76.8181C38.8816 76.7593 39.004 76.7241 39.1474 76.7128C39.2387 76.7064 39.3562 76.7142 39.5019 76.7369C39.4016 76.6773 39.3307 76.6264 39.2896 76.5857C39.262 76.5583 39.2262 76.5069 39.1826 76.4324C39.1387 76.358 39.1111 76.3021 39.1003 76.2658L38.8758 75.5381L39.9202 75.8711L40.1796 76.6456C40.2125 76.7456 40.2479 76.8154 40.2881 76.8547C40.343 76.9071 40.4123 76.9469 40.4963 76.9737L40.5786 76.9995L40.8898 76.1803L41.8179 76.4766ZM40.4332 77.3814L40.0432 77.2572C40.0013 77.2436 39.9164 77.227 39.7881 77.2063C39.7236 77.1953 39.6657 77.2005 39.6139 77.2223C39.5619 77.2438 39.5281 77.2764 39.511 77.3209C39.486 77.3861 39.4979 77.446 39.5456 77.5001C39.5939 77.5542 39.7021 77.6086 39.8702 77.6621L40.2764 77.7921L40.4332 77.3814Z" fill="#1A1A1A"/>
<path d="M37.4477 77.2767L35.1108 76.2184L35.379 75.8275L36.8416 76.4894L37.0408 76.1986L35.6844 75.5838L35.9403 75.21L37.2971 75.8252L37.5448 75.4636L36.0398 74.7828L36.3239 74.3672L38.7027 75.4444L37.4477 77.2767Z" fill="#1A1A1A"/>
<path d="M46.7496 79.6968L43.8488 79.3035L43.8477 78.7617L44.8211 78.8935L44.8173 77.2412L45.7712 77.3706L45.7753 79.0232L46.7481 79.1552L46.7496 79.6968Z" fill="#D1D2D1"/>
<path d="M43.0793 79.1232L42.1294 78.9109L42.5034 76.7852L43.4533 76.9975L43.0793 79.1232Z" fill="#D1D2D1"/>
<path d="M41.9025 76.6641L41.1352 78.6837L39.5953 78.1925C39.3094 78.1011 39.0968 78.0148 38.9583 77.9339C38.8202 77.8525 38.7216 77.7527 38.6631 77.6335C38.6047 77.5142 38.5997 77.3903 38.6483 77.2624C38.6913 77.1495 38.7635 77.0637 38.8653 77.0056C38.9671 76.9474 39.0889 76.9122 39.2326 76.9014C39.323 76.8947 39.4417 76.9023 39.5871 76.925C39.4862 76.8651 39.4161 76.8145 39.3751 76.7738C39.3472 76.7464 39.3111 76.6949 39.2675 76.6205C39.2239 76.5455 39.1965 76.4902 39.1858 76.4533L38.9609 75.7256L40.0053 76.0589L40.2648 76.8337C40.297 76.9328 40.3334 77.0027 40.3735 77.0425C40.4285 77.0957 40.4977 77.1347 40.5821 77.1615L40.6635 77.1876L40.975 76.368L41.9025 76.6641ZM40.5184 77.5692L40.1284 77.4444C40.0859 77.4308 40.001 77.4145 39.873 77.3941C39.8084 77.3831 39.7506 77.3883 39.6982 77.4098C39.6473 77.4308 39.613 77.4642 39.5961 77.5081C39.5711 77.5739 39.583 77.6335 39.6302 77.6876C39.6787 77.7422 39.7875 77.7963 39.9556 77.8501L40.3616 77.9796L40.5184 77.5692Z" fill="#D1D2D1"/>
<path d="M37.5321 77.4632L35.1958 76.4052L35.4634 76.0137L36.9266 76.6759L37.1264 76.3848L35.769 75.7706L36.0253 75.3971L37.382 76.0111L37.6292 75.6502L36.1242 74.9687L36.4083 74.5537L38.7876 75.6304L37.5321 77.4632Z" fill="#D1D2D1"/>
<path d="M33.6031 75.4841L31.2896 73.9255L31.7499 73.5561L32.5265 74.0791L33.9283 72.9541L34.6897 73.4668L33.287 74.5924L34.063 75.115L33.6031 75.4841Z" fill="#1A1A1A"/>
<path d="M30.7404 73.4623L30.0537 72.8949L32.2041 71.6152L32.8908 72.1824L30.7404 73.4623Z" fill="#1A1A1A"/>
<path d="M31.7585 71.2646L29.3394 72.2962L28.3508 71.2765C28.1676 71.0872 28.0478 70.9339 27.9902 70.8173C27.9329 70.7007 27.928 70.589 27.9765 70.482C28.0242 70.3749 28.1251 70.2886 28.279 70.222C28.4134 70.165 28.5518 70.1391 28.6949 70.1446C28.8371 70.1501 28.979 70.1807 29.1189 70.2365C29.2085 70.2729 29.3091 70.3307 29.4231 70.411C29.3818 70.3252 29.3603 70.2592 29.3577 70.2132C29.3557 70.1827 29.3661 70.1315 29.3903 70.0611C29.4127 69.9908 29.4356 69.941 29.4569 69.9108L29.8713 69.3154L30.5414 70.0079L30.1182 70.6498C30.0633 70.7321 30.0368 70.7958 30.0397 70.84C30.0455 70.8999 30.0752 70.9584 30.1293 71.0142L30.1819 71.0686L31.1635 70.6498L31.7585 71.2646ZM29.7241 71.2635L29.4743 71.0055C29.447 70.9773 29.3833 70.9281 29.2844 70.8572C29.235 70.8211 29.1777 70.7987 29.1119 70.7906C29.0462 70.7818 28.9866 70.7891 28.9342 70.8118C28.856 70.8449 28.8162 70.8903 28.8133 70.9494C28.8109 71.0069 28.8639 71.0924 28.9721 71.2044L29.2326 71.4731L29.7241 71.2635Z" fill="#1A1A1A"/>
<path d="M27.0879 69.8622L25.8545 68.1029L26.4324 67.9561L27.2043 69.0572L27.6347 68.9481L26.9181 67.9261L27.4701 67.7859L28.1858 68.8082L28.7192 68.6721L27.9246 67.539L28.5377 67.3828L29.7927 69.1744L27.0879 69.8622Z" fill="#1A1A1A"/>
<path d="M33.5216 75.6497L31.208 74.0911L31.6681 73.7218L32.4438 74.2447L33.8471 73.1191L34.6079 73.6319L33.2052 74.758L33.9814 75.2806L33.5216 75.6497Z" fill="#D1D2D1"/>
<path d="M30.6583 73.6268L29.9717 73.0597L32.1227 71.7803L32.8093 72.3471L30.6583 73.6268Z" fill="#D1D2D1"/>
<path d="M31.6765 71.431L29.2579 72.4629L28.27 71.4432C28.0867 71.2539 27.9663 71.1006 27.909 70.9843C27.8514 70.8677 27.8462 70.7551 27.8951 70.6481C27.9425 70.5416 28.044 70.4547 28.1975 70.3887C28.3313 70.332 28.4704 70.3055 28.6135 70.311C28.756 70.316 28.8976 70.3471 29.0375 70.4032C29.1262 70.4393 29.2274 70.4969 29.3414 70.5774C29.3001 70.4916 29.2795 70.4259 29.2757 70.3797C29.2739 70.3491 29.285 70.2982 29.3085 70.2275C29.3318 70.1574 29.3545 70.1077 29.3751 70.0781L29.7896 69.4824L30.4591 70.1746L30.0371 70.8162C29.9818 70.8988 29.9553 70.9625 29.9577 71.0067C29.9638 71.0672 29.9935 71.1248 30.0475 71.1812L30.0999 71.2347L31.0815 70.8156L31.6765 71.431ZM29.6427 71.4302L29.3926 71.1722C29.3652 71.144 29.3021 71.0945 29.2024 71.0239C29.1532 70.9875 29.0959 70.9651 29.0305 70.9573C28.9645 70.9488 28.9051 70.9558 28.8525 70.9782C28.7746 71.0119 28.7347 71.0579 28.7318 71.1158C28.7292 71.1745 28.7824 71.2594 28.8906 71.3708L29.1512 71.6401L29.6427 71.4302Z" fill="#D1D2D1"/>
<path d="M27.006 70.0292L25.7734 68.2693L26.3513 68.1222L27.1229 69.2244L27.5528 69.1145L26.8367 68.0928L27.3882 67.9526L28.1048 68.9746L28.6379 68.8388L27.8436 67.706L28.4564 67.5498L29.7116 69.3414L27.006 70.0292Z" fill="#D1D2D1"/>
</g>
<path d="M52.7019 68.054L52.7943 67.9897C52.1257 66.5827 51.9684 65.0915 52.3357 63.5158C52.7679 61.655 53.798 60.22 55.4241 59.2094C57.049 58.199 58.796 57.9105 60.6635 58.3415C62.0158 58.6542 63.1367 59.2902 64.0392 60.2293L64.1145 60.1767L64.9501 61.3871C64.9585 61.402 64.971 61.4127 64.98 61.4276C64.9844 61.434 64.9873 61.441 64.9919 61.4482L68.4075 66.3977C71.9891 62.3908 74.3318 57.2203 74.7687 51.4475C74.8196 50.7766 74.8358 50.1102 74.8344 49.448L70.3375 51.2294C70.0583 51.3687 69.7555 51.4775 69.4502 51.5807L69.33 51.6284L69.3286 51.6235C69.1634 51.6755 69.0148 51.7491 68.8429 51.7916C66.9848 52.2514 65.2377 51.9882 63.6012 51.0025C61.9647 50.0172 60.9171 48.5953 60.457 46.7374C59.9969 44.8798 60.2607 43.1287 61.2466 41.4852C61.9929 40.2407 62.9913 39.3391 64.2375 38.7731L64.2227 38.7359L70.9596 36.0669C67.9588 31.2972 63.3993 27.5739 57.9357 25.6518L57.4105 32.4981L57.3459 32.4931C57.0769 34.0386 56.3629 35.3648 55.1431 36.4415C53.7096 37.7055 52.039 38.2776 50.1291 38.1566C48.2195 38.0356 46.6289 37.2582 45.3577 35.8235C44.2336 34.5528 43.6857 33.0853 43.6519 31.4426L43.5842 31.4371L44.0929 24.8115C38.6356 26.0077 33.7918 28.967 30.2503 33.1181L36.1583 36.5828L36.1536 36.5904C37.4042 37.3445 38.337 38.414 38.9201 39.8292C39.6483 41.5954 39.6428 43.3617 38.9067 45.1282C38.1697 46.8945 36.9154 48.1442 35.1445 48.8777C33.3744 49.6112 31.6062 49.6094 29.8387 48.8724C29.5956 48.7707 29.3859 48.6351 29.162 48.5138L29.1437 48.545L24.467 45.803C24.3778 46.4038 24.3085 47.0123 24.2623 47.628C23.8298 53.3435 25.3317 58.7571 28.2121 63.2311L33.3314 57.8151L33.4323 57.9102C34.4494 57.1424 35.6252 56.6864 36.977 56.5755C38.8814 56.4185 40.5621 56.9595 42.0212 58.1984C43.4801 59.4377 44.2897 61.0123 44.4494 62.9222C44.5861 64.5378 44.2147 65.9902 43.3486 67.2833L43.4094 67.3409L42.9324 67.8449C42.8975 67.8882 42.8682 67.9324 42.8315 67.9746C42.7387 68.0851 42.63 68.1654 42.5328 68.2678L38.6255 72.402C41.3692 73.7099 44.393 74.5481 47.6053 74.7912C50.7614 75.03 53.8225 74.6746 56.6875 73.8283L52.7019 68.054Z" fill="black"/>
<path d="M54.0756 67.7551L54.1629 67.6844C53.389 66.332 53.1182 64.8581 53.3634 63.2588C53.6524 61.3701 54.5689 59.8601 56.1129 58.7287C57.6561 57.5976 59.3764 57.1759 61.2714 57.4624C62.6433 57.6703 63.8093 58.2189 64.781 59.0861L64.8522 59.0288L65.7779 60.1715C65.7878 60.1855 65.8003 60.1948 65.8105 60.2091C65.8157 60.2155 65.8189 60.2227 65.8239 60.2288L69.6088 64.9026C72.8731 60.6334 74.8142 55.2989 74.8078 49.51C74.8069 48.8362 74.772 48.1713 74.7191 47.5108L70.3725 49.631C70.1044 49.791 69.8112 49.9225 69.5143 50.049L69.3991 50.106L69.3962 50.1007C69.2363 50.1659 69.0932 50.2499 68.9253 50.3058C67.1085 50.9064 65.3458 50.7775 63.6388 49.9198C61.9316 49.0627 60.7779 47.7252 60.1776 45.9083C59.577 44.0909 59.7053 42.3252 60.5627 40.611C61.2121 39.313 62.1387 38.3376 63.3369 37.6779L63.3198 37.6419L69.833 34.4654C66.4753 29.9396 61.6449 26.5755 56.0504 25.0771V31.9432H55.9855C55.8357 33.505 55.225 34.8815 54.091 36.049C52.7593 37.4185 51.1364 38.1168 49.2233 38.1424C47.3099 38.168 45.6644 37.5145 44.2876 36.1813C43.0687 35.0005 42.4108 33.5786 42.2506 31.9432H42.1831V25.2982C36.8329 26.9085 32.2301 30.2299 29.0173 34.6396L35.1731 37.6422L35.1696 37.6497C36.4731 38.3061 37.4852 39.3011 38.1748 40.6677C39.036 42.3726 39.1665 44.1345 38.5674 45.952C37.9674 47.7694 36.8128 49.1116 35.1033 49.9783C33.3938 50.8453 31.6301 50.9788 29.8124 50.3791C29.562 50.2962 29.3424 50.1769 29.1098 50.0734L29.0941 50.106L24.222 47.7293C24.1787 48.3356 24.1554 48.9476 24.1563 49.5644C24.1624 55.2959 26.0749 60.5787 29.2889 64.8194L33.9781 59.0286L34.0862 59.1152C35.0411 58.2718 36.1785 57.7276 37.5181 57.5133C39.4047 57.2108 41.1227 57.6224 42.6726 58.7453C44.2212 59.8691 45.1493 61.3771 45.4547 63.2704C45.7141 64.8703 45.4553 66.3469 44.6901 67.7025L44.7552 67.7548L44.3187 68.2946C44.287 68.3397 44.2608 68.3865 44.2279 68.4322C44.1433 68.5485 44.0415 68.6366 43.9525 68.7463L40.3726 73.1673C43.2089 74.2611 46.2873 74.8661 49.5092 74.8626C52.6741 74.8588 55.6993 74.2704 58.4911 73.2074L54.0756 67.7551Z" fill="url(#paint2_radial_1127_4191)"/>
<path d="M45.2379 57.282C44.0876 57.2663 43.1596 56.3124 43.175 55.1624C43.1907 54.0124 44.1443 53.0841 45.2943 53.0998C46.4443 53.1155 47.3723 54.0695 47.3575 55.2194C47.3415 56.3691 46.3879 57.2977 45.2379 57.282Z" fill="url(#paint3_radial_1127_4191)"/>
<path d="M49.5506 44.8237C48.4006 44.808 47.4723 43.8544 47.488 42.7044C47.504 41.5539 48.4579 40.6258 49.6076 40.6418C50.7581 40.6575 51.6859 41.6115 51.6702 42.7614C51.6545 43.9114 50.7006 44.8395 49.5506 44.8237Z" fill="url(#paint4_radial_1127_4191)"/>
<path d="M53.3411 57.282C52.1912 57.2663 51.2628 56.3124 51.2785 55.1624C51.2945 54.0124 52.2482 53.0841 53.3978 53.0998C54.5478 53.1155 55.4758 54.0695 55.4607 55.2194C55.445 56.3691 54.4911 57.2977 53.3411 57.282Z" fill="url(#paint5_radial_1127_4191)"/>
<path d="M42.7994 49.8101C41.6495 49.7944 40.7211 48.8404 40.7365 47.6904C40.7522 46.5405 41.7062 45.6121 42.8561 45.6281C44.0061 45.6438 44.9347 46.5975 44.9187 47.7475C44.903 48.8974 43.9497 49.8258 42.7994 49.8101Z" fill="url(#paint6_radial_1127_4191)"/>
<path d="M56.0543 49.9214C54.9035 49.9054 53.976 48.9518 53.9914 47.8015C54.0071 46.6515 54.9611 45.7235 56.111 45.7395C57.2607 45.7549 58.1893 46.7088 58.1739 47.8588C58.1582 49.009 57.204 49.9371 56.0543 49.9214Z" fill="url(#paint7_radial_1127_4191)"/>
<defs>
<radialGradient id="paint0_radial_1127_4191" cx="0" cy="0" r="1" gradientUnits="userSpaceOnUse" gradientTransform="translate(49.4821 49.5086) rotate(-0.0630257) scale(32.3071 32.3074)">
<stop offset="0.7586" stop-color="#303030"/>
<stop offset="0.7931" stop-color="#888888"/>
<stop offset="0.8227"/>
<stop offset="0.9606" stop-color="#202020"/>
<stop offset="0.9951" stop-color="#888888"/>
</radialGradient>
<radialGradient id="paint1_radial_1127_4191" cx="0" cy="0" r="1" gradientUnits="userSpaceOnUse" gradientTransform="translate(49.4819 49.5085) scale(15.4517 15.4518)">
<stop offset="0.8079"/>
<stop offset="0.8522" stop-color="#808080"/>
<stop offset="0.9754" stop-color="#666666"/>
<stop offset="1" stop-color="#CCCCCC"/>
</radialGradient>
<radialGradient id="paint2_radial_1127_4191" cx="0" cy="0" r="1" gradientUnits="userSpaceOnUse" gradientTransform="translate(49.4822 49.9702) scale(25.1101 25.1103)">
<stop offset="0.803" stop-color="white"/>
<stop offset="0.8374" stop-color="#ADADAD"/>
<stop offset="0.9064" stop-color="#888888"/>
<stop offset="0.9606" stop-color="white"/>
<stop offset="1" stop-color="#4D4D4D"/>
</radialGradient>
<radialGradient id="paint3_radial_1127_4191" cx="0" cy="0" r="1" gradientUnits="userSpaceOnUse" gradientTransform="translate(45.0013 53.9547) rotate(0.779255) scale(2.09133 2.09133)">
<stop offset="0.3498" stop-color="#808080"/>
<stop offset="0.6601"/>
<stop offset="0.7833" stop-color="#4D4D4D"/>
<stop offset="1"/>
</radialGradient>
<radialGradient id="paint4_radial_1127_4191" cx="0" cy="0" r="1" gradientUnits="userSpaceOnUse" gradientTransform="translate(49.3142 41.4965) rotate(0.779257) scale(2.09123 2.09125)">
<stop offset="0.3498" stop-color="#808080"/>
<stop offset="0.6601"/>
<stop offset="0.7833" stop-color="#4D4D4D"/>
<stop offset="1"/>
</radialGradient>
<radialGradient id="paint5_radial_1127_4191" cx="0" cy="0" r="1" gradientUnits="userSpaceOnUse" gradientTransform="translate(53.1048 53.9547) rotate(0.779257) scale(2.09129 2.0913)">
<stop offset="0.3498" stop-color="#808080"/>
<stop offset="0.6601"/>
<stop offset="0.7833" stop-color="#4D4D4D"/>
<stop offset="1"/>
</radialGradient>
<radialGradient id="paint6_radial_1127_4191" cx="0" cy="0" r="1" gradientUnits="userSpaceOnUse" gradientTransform="translate(42.5627 46.4829) rotate(0.779257) scale(2.09117 2.09119)">
<stop offset="0.3498" stop-color="#808080"/>
<stop offset="0.6601"/>
<stop offset="0.7833" stop-color="#4D4D4D"/>
<stop offset="1"/>
</radialGradient>
<radialGradient id="paint7_radial_1127_4191" cx="0" cy="0" r="1" gradientUnits="userSpaceOnUse" gradientTransform="translate(55.8178 46.5941) rotate(0.779255) scale(2.09127 2.09127)">
<stop offset="0.3498" stop-color="#808080"/>
<stop offset="0.6601"/>
<stop offset="0.7833" stop-color="#4D4D4D"/>
<stop offset="1"/>
</radialGradient>
</defs>
</svg>
