<svg width="100" height="100" viewBox="0 0 100 100" fill="none" xmlns="http://www.w3.org/2000/svg">
<circle cx="50" cy="50" r="49" fill="#9C27B0" stroke="#000815" stroke-width="2"/>
<path d="M65.5556 25.5853L63.4424 24.3914L64.4336 22.6377L66.5468 23.8313L65.5556 25.5853Z" fill="#808080"/>
<path d="M68.256 27.4644L66.2842 26.0518L67.4571 24.4141L69.429 25.8269L68.256 27.4644Z" fill="#808080"/>
<path d="M70.7303 29.6138L68.9219 27.9967L70.2641 26.4951L72.0728 28.1125L70.7303 29.6138Z" fill="#808080"/>
<path d="M72.9549 32.0191L71.332 30.215L72.8295 28.8682L74.4521 30.6716L72.9549 32.0191Z" fill="#808080"/>
<path d="M74.9155 34.6606L73.4985 32.6922L75.1322 31.5146L76.5508 33.4836L74.9155 34.6606Z" fill="#808080"/>
<path d="M76.5808 37.4989L75.3828 35.3886L77.1354 34.3945L78.3319 36.5045L76.5808 37.4989Z" fill="#808080"/>
<path d="M77.9239 40.485L76.9595 38.259L78.8071 37.458L79.7718 39.6838L77.9239 40.485Z" fill="#808080"/>
<path d="M78.9464 43.6146L78.2251 41.298L80.149 40.6992L80.8699 43.0163L78.9464 43.6146Z" fill="#808080"/>
<path d="M79.6279 46.8362L79.1597 44.4559L81.1362 44.0674L81.6041 46.4476L79.6279 46.8362Z" fill="#808080"/>
<path d="M79.9586 50.1191L79.7495 47.702L81.7566 47.5283L81.966 49.9455L79.9586 50.1191Z" fill="#808080"/>
<path d="M79.9346 53.3865L79.9858 50.9609L81.9998 51.0031L81.9477 53.4287L79.9346 53.3865Z" fill="#808080"/>
<path d="M79.5562 56.6577L79.8694 54.252L81.8677 54.5128L81.553 56.9186L79.5562 56.6577Z" fill="#808080"/>
<path d="M78.8237 59.8572L79.3976 57.5L81.3549 57.9758L80.7808 60.3333L78.8237 59.8572Z" fill="#808080"/>
<path d="M77.7515 62.9606L78.5766 60.6787L80.471 61.363L79.6462 63.6447L77.7515 62.9606Z" fill="#808080"/>
<path d="M76.3477 65.9444L77.4124 63.7637L79.2225 64.6481L78.1587 66.8285L76.3477 65.9444Z" fill="#808080"/>
<path d="M74.6431 68.7477L75.9332 66.6924L77.639 67.7624L76.3503 69.818L74.6431 68.7477Z" fill="#808080"/>
<path d="M72.6289 71.3756L74.134 69.4727L75.7141 70.7212L74.2093 72.6245L72.6289 71.3756Z" fill="#808080"/>
<path d="M70.3813 73.7284L72.0804 71.9971L73.5186 73.4082L71.8192 75.1396L70.3813 73.7284Z" fill="#808080"/>
<path d="M67.8506 75.858L69.7294 74.3232L71.0047 75.8827L69.1253 77.418L67.8506 75.858Z" fill="#808080"/>
<path d="M65.1294 77.6855L67.1626 76.3613L68.2614 78.0496L66.2282 79.3738L65.1294 77.6855Z" fill="#808080"/>
<path d="M62.2217 79.2115L64.3866 78.1133L65.2978 79.9104L63.1337 81.0083L62.2217 79.2115Z" fill="#808080"/>
<path d="M59.1587 80.4212L61.4278 79.5615L62.1403 81.4453L59.8724 82.3044L59.1587 80.4212Z" fill="#808080"/>
<path d="M56.0078 81.2905L58.3548 80.6777L58.865 82.6269L56.5173 83.2397L56.0078 81.2905Z" fill="#808080"/>
<path d="M52.7559 81.8223L55.1558 81.4648L55.4528 83.4568L53.0534 83.8142L52.7559 81.8223Z" fill="#808080"/>
<path d="M49.4551 82.0003L51.8795 81.9043L51.9586 83.9169L49.5342 84.0126L49.4551 82.0003Z" fill="#808080"/>
<path d="M46.1833 81.8213L48.603 81.9879L48.4657 83.9973L46.0454 83.831L46.1833 81.8213Z" fill="#808080"/>
<path d="M42.9422 81.29L45.3309 81.7176L44.9754 83.7008L42.5874 83.2724L42.9422 81.29Z" fill="#808080"/>
<path d="M39.7863 80.4111L42.1138 81.0946L41.5467 83.0278L39.2183 82.3449L39.7863 80.4111Z" fill="#808080"/>
<path d="M36.7112 79.1846L38.9515 80.1158L38.1788 81.976L35.9385 81.0453L36.7112 79.1846Z" fill="#808080"/>
<path d="M33.8126 77.6533L35.9416 78.8164L34.976 80.5841L32.8477 79.4216L33.8126 77.6533Z" fill="#808080"/>
<path d="M31.0758 75.8076L33.0686 77.1926L31.9187 78.8469L29.9268 77.4616L31.0758 75.8076Z" fill="#808080"/>
<path d="M28.568 73.6885L30.3993 75.2802L29.0775 76.8004L27.2461 75.2087L28.568 73.6885Z" fill="#808080"/>
<path d="M26.3043 71.3096L27.9522 73.0904L26.473 74.4582L24.8257 72.6774L26.3043 71.3096Z" fill="#808080"/>
<path d="M24.3187 68.7139L25.7656 70.661L24.1486 71.8619L22.7017 69.9141L24.3187 68.7139Z" fill="#808080"/>
<path d="M22.6142 65.8965L23.8409 67.9896L22.1032 69.0087L20.8765 66.9159L22.6142 65.8965Z" fill="#808080"/>
<path d="M21.2184 62.9053L22.2128 65.1185L20.3756 65.9442L19.3804 63.7318L21.2184 62.9053Z" fill="#808080"/>
<path d="M20.1602 59.8125L20.9137 62.1188L18.9989 62.7447L18.2456 60.4381L20.1602 59.8125Z" fill="#808080"/>
<path d="M19.4331 56.6025L19.9354 58.9766L17.9641 59.3931L17.4624 57.019L19.4331 56.6025Z" fill="#808080"/>
<path d="M19.0568 53.3477L19.3025 55.7622L17.2984 55.9655L17.0532 53.5515L19.0568 53.3477Z" fill="#808080"/>
<path d="M19.0329 50.0369L19.0146 52.4631L17 52.4476L17.0186 50.0215L19.0329 50.0369Z" fill="#808080"/>
<path d="M19.3649 46.7875L19.0854 49.1976L17.0845 48.9658L17.3631 46.5557L19.3649 46.7875Z" fill="#808080"/>
<path d="M20.0519 43.5601L19.5121 45.9252L17.5483 45.4767L18.0884 43.1113L20.0519 43.5601Z" fill="#808080"/>
<path d="M21.0781 40.4479L20.2861 42.7412L18.3823 42.0833L19.1749 39.79L21.0781 40.4479Z" fill="#808080"/>
<path d="M22.4377 37.4527L21.4044 39.6476L19.582 38.79L20.6154 36.5947L22.4377 37.4527Z" fill="#808080"/>
<path d="M24.1039 34.623L22.8443 36.6967L21.1226 35.6511L22.3822 33.5771L24.1039 34.623Z" fill="#808080"/>
<path d="M26.0697 31.9795L24.5937 33.9054L22.9956 32.6804L24.471 30.7539L26.0697 31.9795Z" fill="#808080"/>
<path d="M28.3033 29.5717L26.6278 31.3266L25.1704 29.9356L26.8465 28.1807L28.3033 29.5717Z" fill="#808080"/>
<path d="M30.7717 27.4319L28.9167 28.996L27.6182 27.4557L29.4731 25.8916L30.7717 27.4319Z" fill="#808080"/>
<path d="M33.4867 25.5495L31.473 26.9028L30.3501 25.2305L32.3638 23.877L33.4867 25.5495Z" fill="#808080"/>
<path d="M36.3739 23.983L34.2261 25.1118L33.2891 23.3281L35.4372 22.2002L36.3739 23.983Z" fill="#808080"/>
<path d="M39.4215 22.7278L37.1655 23.6192L36.4253 21.7456L38.6813 20.8545L39.4215 22.7278Z" fill="#808080"/>
<path d="M42.5815 21.8084L40.2424 22.4526L39.7075 20.5107L42.0461 19.8662L42.5815 21.8084Z" fill="#808080"/>
<path d="M45.8022 21.2366L43.4066 21.6281L43.082 19.6405L45.4765 19.249L45.8022 21.2366Z" fill="#808080"/>
<path d="M49.0749 21.0124L46.6525 21.1453L46.542 19.1336L48.9652 19.001L49.0749 21.0124Z" fill="#808080"/>
<path d="M52.3695 21.1423L49.9478 21.0117L50.0559 19L52.4789 19.1312L52.3695 21.1423Z" fill="#808080"/>
<path d="M55.613 21.627L53.2183 21.2344L53.5446 19.2471L55.9379 19.6394L55.613 21.627Z" fill="#808080"/>
<path d="M58.8003 22.4654L56.4629 21.8151L57.0015 19.874L59.3395 20.5243L58.8003 22.4654Z" fill="#808080"/>
<path d="M61.8598 23.6333L59.605 22.7355L60.3501 20.8643L62.6047 21.7624L61.8598 23.6333Z" fill="#808080"/>
<path d="M81.789 51.4736C81.8082 69.3164 67.3598 83.7969 49.5168 83.8158C31.6735 83.8353 17.194 69.3865 17.1748 51.5437C17.1553 33.7006 31.604 19.2204 49.447 19.2012C67.29 19.182 81.7698 33.6305 81.789 51.4736Z" fill="url(#paint0_radial_1127_4190)"/>
<path d="M74.8083 51.4805C74.8228 65.4674 63.4965 76.8188 49.5097 76.8339C35.5232 76.849 24.1722 65.5226 24.1568 51.5357C24.1416 37.5488 35.4679 26.1975 49.4545 26.1826C63.4419 26.1672 74.7926 37.4939 74.8083 51.4805Z" fill="black"/>
<path d="M64.9338 51.4919C64.9434 60.026 58.0326 66.9514 49.4986 66.9604C40.9649 66.9703 34.0399 60.0594 34.0303 51.5257C34.0207 42.9914 40.9312 36.066 49.4649 36.0567C57.9992 36.0473 64.9245 42.9582 64.9338 51.4919Z" fill="url(#paint1_radial_1127_4190)"/>
<g opacity="0.23">
<path d="M52.5843 21.8291L55.479 22.2656L55.4723 22.8078L54.5015 22.6612L54.4806 24.3128L53.5278 24.1695L53.5487 22.5172L52.5776 22.3706L52.5843 21.8291Z" fill="#1A1A1A"/>
<path d="M56.2458 22.458L57.1922 22.6846L56.7865 24.8042L55.8398 24.5779L56.2458 22.458Z" fill="#1A1A1A"/>
<path d="M57.3853 24.9344L58.1824 22.9268L59.7154 23.4409C59.9996 23.5366 60.2101 23.6259 60.3477 23.7091C60.485 23.7923 60.5818 23.8938 60.6382 24.0136C60.695 24.1334 60.6979 24.2576 60.6476 24.3853C60.6034 24.4967 60.5301 24.581 60.4274 24.638C60.3247 24.6953 60.2017 24.7285 60.0589 24.7375C59.9667 24.7427 59.8486 24.7334 59.7035 24.7081C59.8035 24.7695 59.8736 24.8213 59.9135 24.8623C59.9414 24.8902 59.9757 24.9417 60.0188 25.0176C60.0615 25.0926 60.0883 25.1487 60.0982 25.1854L60.3122 25.9166L59.2734 25.5678L59.0256 24.7893C58.9947 24.6892 58.9598 24.6188 58.9209 24.5787C58.8665 24.5255 58.7979 24.4848 58.7132 24.4566L58.6326 24.4295L58.309 25.2441L57.3853 24.9344ZM58.783 24.05L59.171 24.18C59.2129 24.1942 59.2978 24.212 59.4257 24.2344C59.4903 24.2469 59.5479 24.2422 59.6 24.2216C59.652 24.2006 59.6866 24.1683 59.7038 24.1244C59.7297 24.0596 59.7189 23.9999 59.6718 23.9447C59.625 23.8897 59.5171 23.8336 59.3496 23.7777L58.945 23.6419L58.783 24.05Z" fill="#1A1A1A"/>
<path d="M61.7675 24.2002L64.0884 25.2929L63.8141 25.68L62.3614 24.9956L62.1578 25.2839L63.5059 25.9185L63.2441 26.2884L61.8964 25.6538L61.6436 26.0112L63.1385 26.7148L62.8483 27.1254L60.4858 26.013L61.7675 24.2002Z" fill="#1A1A1A"/>
<path d="M52.502 21.6406L55.3967 22.0778L55.3897 22.6193L54.4186 22.4727L54.398 24.1247L53.4455 23.981L53.4667 22.329L52.4956 22.1827L52.502 21.6406Z" fill="#D1D2D1"/>
<path d="M56.1635 22.2686L57.1105 22.4951L56.7045 24.6153L55.7578 24.389L56.1635 22.2686Z" fill="#D1D2D1"/>
<path d="M57.3027 24.7453L58.1002 22.7383L59.6335 23.2522C59.9176 23.3476 60.1285 23.4372 60.2655 23.52C60.4025 23.6035 60.4996 23.705 60.5563 23.8248C60.6133 23.9447 60.6156 24.0686 60.565 24.1962C60.5208 24.3076 60.4475 24.3923 60.3449 24.4493C60.2419 24.506 60.1195 24.5394 59.9755 24.5482C59.8845 24.5537 59.7664 24.5438 59.6222 24.5194C59.721 24.5807 59.7911 24.6322 59.8315 24.6735C59.8592 24.7014 59.8941 24.7532 59.9362 24.8288C59.9793 24.9038 60.006 24.9603 60.0162 24.9969L60.2303 25.7278L59.1906 25.3791L58.9428 24.6008C58.9122 24.5007 58.877 24.4304 58.838 24.3902C58.7834 24.3373 58.7147 24.2966 58.6307 24.2687L58.5495 24.2413L58.2261 25.056L57.3027 24.7453ZM58.7011 23.8612L59.0891 23.9915C59.1312 24.006 59.2156 24.0238 59.3435 24.0462C59.4078 24.0581 59.466 24.0537 59.5172 24.0334C59.5695 24.0124 59.6044 23.9799 59.6219 23.936C59.6474 23.8711 59.6364 23.8112 59.5901 23.7562C59.5425 23.701 59.4354 23.6454 59.2673 23.5893L58.8631 23.4534L58.7011 23.8612Z" fill="#D1D2D1"/>
<path d="M61.6845 24.0117L64.0054 25.1044L63.732 25.4918L62.2787 24.8077L62.0748 25.096L63.4229 25.7303L63.1617 26.0999L61.8134 25.4653L61.5609 25.8228L63.0555 26.5263L62.7659 26.937L60.4028 25.8248L61.6845 24.0117Z" fill="#D1D2D1"/>
<path d="M65.5838 26.0479L67.8744 27.6408L67.4088 28.0031L66.6404 27.4686L65.2211 28.5729L64.4673 28.0491L65.8868 26.9445L65.1185 26.4099L65.5838 26.0479Z" fill="#1A1A1A"/>
<path d="M68.417 28.1133L69.0946 28.6909L66.9256 29.9383L66.2471 29.361L68.417 28.1133Z" fill="#1A1A1A"/>
<path d="M67.3662 30.2949L69.7999 29.2988L70.7728 30.3333C70.9534 30.5256 71.0715 30.6803 71.1276 30.7981C71.1826 30.9156 71.1863 31.0279 71.1363 31.134C71.0866 31.2405 70.9845 31.3251 70.8295 31.3885C70.6945 31.444 70.5552 31.4679 70.4124 31.4603C70.2702 31.4528 70.1286 31.4199 69.9898 31.362C69.9014 31.3248 69.8014 31.2652 69.6891 31.1835C69.7281 31.2695 69.749 31.3356 69.7514 31.3818C69.7531 31.4129 69.7415 31.4635 69.7162 31.5336C69.6917 31.6034 69.6688 31.6532 69.6472 31.6822L69.2241 32.2715L68.5644 31.5694L68.9966 30.9336C69.0531 30.8519 69.0804 30.7891 69.0789 30.7446C69.0737 30.6841 69.0452 30.6256 68.9917 30.5692L68.9399 30.5145L67.9522 30.9185L67.3662 30.2949ZM69.4 30.3258L69.6464 30.5875C69.6734 30.616 69.7357 30.6663 69.834 30.7385C69.8828 30.7757 69.9404 30.7987 70.0058 30.808C70.0707 30.8173 70.1303 30.8112 70.1832 30.7894C70.2621 30.7568 70.3028 30.7117 70.3068 30.6538C70.3095 30.5957 70.2583 30.5093 70.1515 30.3965L69.8947 30.1236L69.4 30.3258Z" fill="#1A1A1A"/>
<path d="M72.0148 31.7666L73.2212 33.5445L72.6416 33.6829L71.886 32.5696L71.4547 32.6726L72.1556 33.7053L71.6019 33.8371L70.9006 32.8046L70.3658 32.9323L71.1423 34.0776L70.5284 34.2242L69.2993 32.414L72.0148 31.7666Z" fill="#1A1A1A"/>
<path d="M65.6689 25.8838L67.9586 27.477L67.4933 27.8394L66.7246 27.3051L65.3062 28.4097L64.5518 27.8853L65.9713 26.7804L65.2027 26.2465L65.6689 25.8838Z" fill="#D1D2D1"/>
<path d="M68.5015 27.9502L69.1791 28.5275L67.0098 29.7749L66.3315 29.1979L68.5015 27.9502Z" fill="#D1D2D1"/>
<path d="M67.4507 30.1306L69.8847 29.1348L70.8581 30.1693C71.0387 30.3612 71.1562 30.5162 71.2121 30.6335C71.2676 30.7515 71.2708 30.8632 71.2208 30.9694C71.1713 31.0758 71.0693 31.1607 70.9145 31.2238C70.7793 31.2794 70.6406 31.3032 70.4975 31.2957C70.355 31.2881 70.2133 31.2553 70.0746 31.1971C69.9859 31.1599 69.8856 31.1005 69.7736 31.0185C69.8134 31.1046 69.8335 31.1706 69.8355 31.2169C69.8379 31.248 69.8259 31.2983 69.8006 31.3684C69.7765 31.4385 69.7535 31.4882 69.732 31.5173L69.3091 32.1065L68.6495 31.4047L69.0814 30.7687C69.1375 30.6875 69.1652 30.6241 69.1631 30.5799C69.1582 30.5197 69.1297 30.461 69.0765 30.4046L69.0247 30.3496L68.0364 30.7536L67.4507 30.1306ZM69.4848 30.1614L69.7314 30.4238C69.7576 30.4523 69.8204 30.5023 69.9184 30.5744C69.9676 30.6116 70.0243 30.6346 70.09 30.6439C70.1555 30.6532 70.2148 30.6468 70.2677 30.625C70.3465 30.5927 70.387 30.5477 70.391 30.4892C70.3937 30.431 70.3428 30.3452 70.2357 30.2321L69.9792 29.959L69.4848 30.1614Z" fill="#D1D2D1"/>
<path d="M72.0996 31.6025L73.306 33.3807L72.7267 33.5189L71.9708 32.4055L71.5389 32.5085L72.2401 33.541L71.686 33.6733L70.9851 32.6405L70.45 32.7685L71.2274 33.9135L70.6126 34.0601L69.3838 32.2499L72.0996 31.6025Z" fill="#D1D2D1"/>
</g>
<g opacity="0.23">
<path d="M46.6646 81.5092L43.7644 81.1154L43.7632 80.5739L44.7354 80.706L44.7323 79.0537L45.6862 79.1831L45.69 80.8351L46.6631 80.9671L46.6646 81.5092Z" fill="#1A1A1A"/>
<path d="M42.9948 80.936L42.0449 80.724L42.4186 78.5977L43.3685 78.81L42.9948 80.936Z" fill="#1A1A1A"/>
<path d="M41.8179 78.4766L41.0501 80.495L39.5101 80.0041C39.2239 79.9131 39.0116 79.827 38.874 79.7455C38.7353 79.6644 38.6367 79.5638 38.5785 79.4451C38.5198 79.3264 38.5146 79.202 38.5634 79.0737C38.6065 78.962 38.6786 78.8762 38.7801 78.8181C38.8816 78.7593 39.004 78.7241 39.1474 78.7128C39.2387 78.7064 39.3562 78.7142 39.5019 78.7369C39.4016 78.6773 39.3307 78.6264 39.2896 78.5857C39.262 78.5583 39.2262 78.5069 39.1826 78.4324C39.1387 78.358 39.1111 78.3021 39.1003 78.2658L38.8758 77.5381L39.9202 77.8711L40.1796 78.6456C40.2125 78.7456 40.2479 78.8154 40.2881 78.8547C40.343 78.9071 40.4123 78.9469 40.4963 78.9737L40.5786 78.9995L40.8898 78.1803L41.8179 78.4766ZM40.4332 79.3814L40.0432 79.2572C40.0013 79.2436 39.9164 79.227 39.7881 79.2063C39.7236 79.1953 39.6657 79.2005 39.6139 79.2223C39.5619 79.2438 39.5281 79.2764 39.511 79.3209C39.486 79.3861 39.4979 79.446 39.5456 79.5001C39.5939 79.5542 39.7021 79.6086 39.8702 79.6621L40.2764 79.7921L40.4332 79.3814Z" fill="#1A1A1A"/>
<path d="M37.4477 79.2767L35.1108 78.2184L35.379 77.8275L36.8416 78.4894L37.0408 78.1986L35.6844 77.5838L35.9403 77.21L37.2971 77.8252L37.5448 77.4636L36.0398 76.7828L36.3239 76.3672L38.7027 77.4444L37.4477 79.2767Z" fill="#1A1A1A"/>
<path d="M46.7496 81.6968L43.8488 81.3035L43.8477 80.7617L44.8211 80.8935L44.8173 79.2412L45.7712 79.3706L45.7753 81.0232L46.7481 81.1552L46.7496 81.6968Z" fill="#D1D2D1"/>
<path d="M43.0793 81.1232L42.1294 80.9109L42.5034 78.7852L43.4533 78.9975L43.0793 81.1232Z" fill="#D1D2D1"/>
<path d="M41.9025 78.6641L41.1352 80.6837L39.5953 80.1925C39.3094 80.1011 39.0968 80.0148 38.9583 79.9339C38.8202 79.8525 38.7216 79.7527 38.6631 79.6335C38.6047 79.5142 38.5997 79.3903 38.6483 79.2624C38.6913 79.1495 38.7635 79.0637 38.8653 79.0056C38.9671 78.9474 39.0889 78.9122 39.2326 78.9014C39.323 78.8947 39.4417 78.9023 39.5871 78.925C39.4862 78.8651 39.4161 78.8145 39.3751 78.7738C39.3472 78.7464 39.3111 78.6949 39.2675 78.6205C39.2239 78.5455 39.1965 78.4902 39.1858 78.4533L38.9609 77.7256L40.0053 78.0589L40.2648 78.8337C40.297 78.9328 40.3334 79.0027 40.3735 79.0425C40.4285 79.0957 40.4977 79.1347 40.5821 79.1615L40.6635 79.1876L40.975 78.368L41.9025 78.6641ZM40.5184 79.5692L40.1284 79.4444C40.0859 79.4308 40.001 79.4145 39.873 79.3941C39.8084 79.3831 39.7506 79.3883 39.6982 79.4098C39.6473 79.4308 39.613 79.4642 39.5961 79.5081C39.5711 79.5739 39.583 79.6335 39.6302 79.6876C39.6787 79.7422 39.7875 79.7963 39.9556 79.8501L40.3616 79.9796L40.5184 79.5692Z" fill="#D1D2D1"/>
<path d="M37.5321 79.4632L35.1958 78.4052L35.4634 78.0137L36.9266 78.6759L37.1264 78.3848L35.769 77.7706L36.0253 77.3971L37.382 78.0111L37.6292 77.6502L36.1242 76.9687L36.4083 76.5537L38.7876 77.6304L37.5321 79.4632Z" fill="#D1D2D1"/>
<path d="M33.6031 77.4841L31.2896 75.9255L31.7499 75.5561L32.5265 76.0791L33.9283 74.9541L34.6897 75.4668L33.287 76.5924L34.063 77.115L33.6031 77.4841Z" fill="#1A1A1A"/>
<path d="M30.7404 75.4623L30.0537 74.8949L32.2041 73.6152L32.8908 74.1824L30.7404 75.4623Z" fill="#1A1A1A"/>
<path d="M31.7585 73.2646L29.3394 74.2962L28.3508 73.2765C28.1676 73.0872 28.0478 72.9339 27.9902 72.8173C27.9329 72.7007 27.928 72.589 27.9765 72.482C28.0242 72.3749 28.1251 72.2886 28.279 72.222C28.4134 72.165 28.5518 72.1391 28.6949 72.1446C28.8371 72.1501 28.979 72.1807 29.1189 72.2365C29.2085 72.2729 29.3091 72.3307 29.4231 72.411C29.3818 72.3252 29.3603 72.2592 29.3577 72.2132C29.3557 72.1827 29.3661 72.1315 29.3903 72.0611C29.4127 71.9908 29.4356 71.941 29.4569 71.9108L29.8713 71.3154L30.5414 72.0079L30.1182 72.6498C30.0633 72.7321 30.0368 72.7958 30.0397 72.84C30.0455 72.8999 30.0752 72.9584 30.1293 73.0142L30.1819 73.0686L31.1635 72.6498L31.7585 73.2646ZM29.7241 73.2635L29.4743 73.0055C29.447 72.9773 29.3833 72.9281 29.2844 72.8572C29.235 72.8211 29.1777 72.7987 29.1119 72.7906C29.0462 72.7818 28.9866 72.7891 28.9342 72.8118C28.856 72.8449 28.8162 72.8903 28.8133 72.9494C28.8109 73.0069 28.8639 73.0924 28.9721 73.2044L29.2326 73.4731L29.7241 73.2635Z" fill="#1A1A1A"/>
<path d="M27.0879 71.8622L25.8545 70.1029L26.4324 69.9561L27.2043 71.0572L27.6347 70.9481L26.9181 69.9261L27.4701 69.7859L28.1858 70.8082L28.7192 70.6721L27.9246 69.539L28.5377 69.3828L29.7927 71.1744L27.0879 71.8622Z" fill="#1A1A1A"/>
<path d="M33.5216 77.6497L31.208 76.0911L31.6681 75.7218L32.4438 76.2447L33.8471 75.1191L34.6079 75.6319L33.2052 76.758L33.9814 77.2806L33.5216 77.6497Z" fill="#D1D2D1"/>
<path d="M30.6583 75.6268L29.9717 75.0597L32.1227 73.7803L32.8093 74.3471L30.6583 75.6268Z" fill="#D1D2D1"/>
<path d="M31.6765 73.431L29.2579 74.4629L28.27 73.4432C28.0867 73.2539 27.9663 73.1006 27.909 72.9843C27.8514 72.8677 27.8462 72.7551 27.8951 72.6481C27.9425 72.5416 28.044 72.4547 28.1975 72.3887C28.3313 72.332 28.4704 72.3055 28.6135 72.311C28.756 72.316 28.8976 72.3471 29.0375 72.4032C29.1262 72.4393 29.2274 72.4969 29.3414 72.5774C29.3001 72.4916 29.2795 72.4259 29.2757 72.3797C29.2739 72.3491 29.285 72.2982 29.3085 72.2275C29.3318 72.1574 29.3545 72.1077 29.3751 72.0781L29.7896 71.4824L30.4591 72.1746L30.0371 72.8162C29.9818 72.8988 29.9553 72.9625 29.9577 73.0067C29.9638 73.0672 29.9935 73.1248 30.0475 73.1812L30.0999 73.2347L31.0815 72.8156L31.6765 73.431ZM29.6427 73.4302L29.3926 73.1722C29.3652 73.144 29.3021 73.0945 29.2024 73.0239C29.1532 72.9875 29.0959 72.9651 29.0305 72.9573C28.9645 72.9488 28.9051 72.9558 28.8525 72.9782C28.7746 73.0119 28.7347 73.0579 28.7318 73.1158C28.7292 73.1745 28.7824 73.2594 28.8906 73.3708L29.1512 73.6401L29.6427 73.4302Z" fill="#D1D2D1"/>
<path d="M27.006 72.0292L25.7734 70.2693L26.3513 70.1222L27.1229 71.2244L27.5528 71.1145L26.8367 70.0928L27.3882 69.9526L28.1048 70.9746L28.6379 70.8388L27.8436 69.706L28.4564 69.5498L29.7116 71.3414L27.006 72.0292Z" fill="#D1D2D1"/>
</g>
<path d="M52.7019 70.054L52.7943 69.9897C52.1257 68.5827 51.9684 67.0915 52.3357 65.5158C52.7679 63.655 53.798 62.22 55.4241 61.2094C57.049 60.199 58.796 59.9105 60.6635 60.3415C62.0158 60.6542 63.1367 61.2902 64.0392 62.2293L64.1145 62.1767L64.9501 63.3871C64.9585 63.402 64.971 63.4127 64.98 63.4276C64.9844 63.434 64.9873 63.441 64.9919 63.4482L68.4075 68.3977C71.9891 64.3908 74.3318 59.2203 74.7687 53.4475C74.8196 52.7766 74.8358 52.1102 74.8344 51.448L70.3375 53.2294C70.0583 53.3687 69.7555 53.4775 69.4502 53.5807L69.33 53.6284L69.3286 53.6235C69.1634 53.6755 69.0148 53.7491 68.8429 53.7916C66.9848 54.2514 65.2377 53.9882 63.6012 53.0025C61.9647 52.0172 60.9171 50.5953 60.457 48.7374C59.9969 46.8798 60.2607 45.1287 61.2466 43.4852C61.9929 42.2407 62.9913 41.3391 64.2375 40.7731L64.2227 40.7359L70.9596 38.0669C67.9588 33.2972 63.3993 29.5739 57.9357 27.6518L57.4105 34.4981L57.3459 34.4931C57.0769 36.0386 56.3629 37.3648 55.1431 38.4415C53.7096 39.7055 52.039 40.2776 50.1291 40.1566C48.2195 40.0356 46.6289 39.2582 45.3577 37.8235C44.2336 36.5528 43.6857 35.0853 43.6519 33.4426L43.5842 33.4371L44.0929 26.8115C38.6356 28.0077 33.7918 30.967 30.2503 35.1181L36.1583 38.5828L36.1536 38.5904C37.4042 39.3445 38.337 40.414 38.9201 41.8292C39.6483 43.5954 39.6428 45.3617 38.9067 47.1282C38.1697 48.8945 36.9154 50.1442 35.1445 50.8777C33.3744 51.6112 31.6062 51.6094 29.8387 50.8724C29.5956 50.7707 29.3859 50.6351 29.162 50.5138L29.1437 50.545L24.467 47.803C24.3778 48.4038 24.3085 49.0123 24.2623 49.628C23.8298 55.3435 25.3317 60.7571 28.2121 65.2311L33.3314 59.8151L33.4323 59.9102C34.4494 59.1424 35.6252 58.6864 36.977 58.5755C38.8814 58.4185 40.5621 58.9595 42.0212 60.1984C43.4801 61.4377 44.2897 63.0123 44.4494 64.9222C44.5861 66.5378 44.2147 67.9902 43.3486 69.2833L43.4094 69.3409L42.9324 69.8449C42.8975 69.8882 42.8682 69.9324 42.8315 69.9746C42.7387 70.0851 42.63 70.1654 42.5328 70.2678L38.6255 74.402C41.3692 75.7099 44.393 76.5481 47.6053 76.7912C50.7614 77.03 53.8225 76.6746 56.6875 75.8283L52.7019 70.054Z" fill="black"/>
<path d="M54.0756 69.7551L54.1629 69.6844C53.389 68.332 53.1182 66.8581 53.3634 65.2588C53.6524 63.3701 54.5689 61.8601 56.1129 60.7287C57.6561 59.5976 59.3764 59.1759 61.2714 59.4624C62.6433 59.6703 63.8093 60.2189 64.781 61.0861L64.8522 61.0288L65.7779 62.1715C65.7878 62.1855 65.8003 62.1948 65.8105 62.2091C65.8157 62.2155 65.8189 62.2227 65.8239 62.2288L69.6088 66.9026C72.8731 62.6334 74.8142 57.2989 74.8078 51.51C74.8069 50.8362 74.772 50.1713 74.7191 49.5108L70.3725 51.631C70.1044 51.791 69.8112 51.9225 69.5143 52.049L69.3991 52.106L69.3962 52.1007C69.2363 52.1659 69.0932 52.2499 68.9253 52.3058C67.1085 52.9064 65.3458 52.7775 63.6388 51.9198C61.9316 51.0627 60.7779 49.7252 60.1776 47.9083C59.577 46.0909 59.7053 44.3252 60.5627 42.611C61.2121 41.313 62.1387 40.3376 63.3369 39.6779L63.3198 39.6419L69.833 36.4654C66.4753 31.9396 61.6449 28.5755 56.0504 27.0771V33.9432H55.9855C55.8357 35.505 55.225 36.8815 54.091 38.049C52.7593 39.4185 51.1364 40.1168 49.2233 40.1424C47.3099 40.168 45.6644 39.5145 44.2876 38.1813C43.0687 37.0005 42.4108 35.5786 42.2506 33.9432H42.1831V27.2982C36.8329 28.9085 32.2301 32.2299 29.0173 36.6396L35.1731 39.6422L35.1696 39.6497C36.4731 40.3061 37.4852 41.3011 38.1748 42.6677C39.036 44.3726 39.1665 46.1345 38.5674 47.952C37.9674 49.7694 36.8128 51.1116 35.1033 51.9783C33.3938 52.8453 31.6301 52.9788 29.8124 52.3791C29.562 52.2962 29.3424 52.1769 29.1098 52.0734L29.0941 52.106L24.222 49.7293C24.1787 50.3356 24.1554 50.9476 24.1563 51.5644C24.1624 57.2959 26.0749 62.5787 29.2889 66.8194L33.9781 61.0286L34.0862 61.1152C35.0411 60.2718 36.1785 59.7276 37.5181 59.5133C39.4047 59.2108 41.1227 59.6224 42.6726 60.7453C44.2212 61.8691 45.1493 63.3771 45.4547 65.2704C45.7141 66.8703 45.4553 68.3469 44.6901 69.7025L44.7552 69.7548L44.3187 70.2946C44.287 70.3397 44.2608 70.3865 44.2279 70.4322C44.1433 70.5485 44.0415 70.6366 43.9525 70.7463L40.3726 75.1673C43.2089 76.2611 46.2873 76.8661 49.5092 76.8626C52.6741 76.8588 55.6993 76.2704 58.4911 75.2074L54.0756 69.7551Z" fill="url(#paint2_radial_1127_4190)"/>
<path d="M45.2379 59.282C44.0876 59.2663 43.1596 58.3124 43.175 57.1624C43.1907 56.0124 44.1443 55.0841 45.2943 55.0998C46.4443 55.1155 47.3723 56.0695 47.3575 57.2194C47.3415 58.3691 46.3879 59.2977 45.2379 59.282Z" fill="url(#paint3_radial_1127_4190)"/>
<path d="M49.5506 46.8237C48.4006 46.808 47.4723 45.8544 47.488 44.7044C47.504 43.5539 48.4579 42.6258 49.6076 42.6418C50.7581 42.6575 51.6859 43.6115 51.6702 44.7614C51.6545 45.9114 50.7006 46.8395 49.5506 46.8237Z" fill="url(#paint4_radial_1127_4190)"/>
<path d="M53.3411 59.282C52.1912 59.2663 51.2628 58.3124 51.2785 57.1624C51.2945 56.0124 52.2482 55.0841 53.3978 55.0998C54.5478 55.1155 55.4758 56.0695 55.4607 57.2194C55.445 58.3691 54.4911 59.2977 53.3411 59.282Z" fill="url(#paint5_radial_1127_4190)"/>
<path d="M42.7994 51.8101C41.6495 51.7944 40.7211 50.8404 40.7365 49.6904C40.7522 48.5405 41.7062 47.6121 42.8561 47.6281C44.0061 47.6438 44.9347 48.5975 44.9187 49.7475C44.903 50.8974 43.9497 51.8258 42.7994 51.8101Z" fill="url(#paint6_radial_1127_4190)"/>
<path d="M56.0543 51.9214C54.9035 51.9054 53.976 50.9518 53.9914 49.8015C54.0071 48.6515 54.9611 47.7235 56.111 47.7395C57.2607 47.7549 58.1893 48.7088 58.1739 49.8588C58.1582 51.009 57.204 51.9371 56.0543 51.9214Z" fill="url(#paint7_radial_1127_4190)"/>
<defs>
<radialGradient id="paint0_radial_1127_4190" cx="0" cy="0" r="1" gradientUnits="userSpaceOnUse" gradientTransform="translate(49.4821 51.5086) rotate(-0.0630257) scale(32.3071 32.3074)">
<stop offset="0.7586" stop-color="#303030"/>
<stop offset="0.7931" stop-color="#888888"/>
<stop offset="0.8227"/>
<stop offset="0.9606" stop-color="#202020"/>
<stop offset="0.9951" stop-color="#888888"/>
</radialGradient>
<radialGradient id="paint1_radial_1127_4190" cx="0" cy="0" r="1" gradientUnits="userSpaceOnUse" gradientTransform="translate(49.4819 51.5085) scale(15.4517 15.4518)">
<stop offset="0.8079"/>
<stop offset="0.8522" stop-color="#808080"/>
<stop offset="0.9754" stop-color="#666666"/>
<stop offset="1" stop-color="#CCCCCC"/>
</radialGradient>
<radialGradient id="paint2_radial_1127_4190" cx="0" cy="0" r="1" gradientUnits="userSpaceOnUse" gradientTransform="translate(49.4822 51.9702) scale(25.1101 25.1103)">
<stop offset="0.803" stop-color="white"/>
<stop offset="0.8374" stop-color="#ADADAD"/>
<stop offset="0.9064" stop-color="#888888"/>
<stop offset="0.9606" stop-color="white"/>
<stop offset="1" stop-color="#4D4D4D"/>
</radialGradient>
<radialGradient id="paint3_radial_1127_4190" cx="0" cy="0" r="1" gradientUnits="userSpaceOnUse" gradientTransform="translate(45.0013 55.9547) rotate(0.779255) scale(2.09133 2.09133)">
<stop offset="0.3498" stop-color="#808080"/>
<stop offset="0.6601"/>
<stop offset="0.7833" stop-color="#4D4D4D"/>
<stop offset="1"/>
</radialGradient>
<radialGradient id="paint4_radial_1127_4190" cx="0" cy="0" r="1" gradientUnits="userSpaceOnUse" gradientTransform="translate(49.3142 43.4965) rotate(0.779257) scale(2.09123 2.09125)">
<stop offset="0.3498" stop-color="#808080"/>
<stop offset="0.6601"/>
<stop offset="0.7833" stop-color="#4D4D4D"/>
<stop offset="1"/>
</radialGradient>
<radialGradient id="paint5_radial_1127_4190" cx="0" cy="0" r="1" gradientUnits="userSpaceOnUse" gradientTransform="translate(53.1048 55.9547) rotate(0.779257) scale(2.09129 2.0913)">
<stop offset="0.3498" stop-color="#808080"/>
<stop offset="0.6601"/>
<stop offset="0.7833" stop-color="#4D4D4D"/>
<stop offset="1"/>
</radialGradient>
<radialGradient id="paint6_radial_1127_4190" cx="0" cy="0" r="1" gradientUnits="userSpaceOnUse" gradientTransform="translate(42.5627 48.4829) rotate(0.779257) scale(2.09117 2.09119)">
<stop offset="0.3498" stop-color="#808080"/>
<stop offset="0.6601"/>
<stop offset="0.7833" stop-color="#4D4D4D"/>
<stop offset="1"/>
</radialGradient>
<radialGradient id="paint7_radial_1127_4190" cx="0" cy="0" r="1" gradientUnits="userSpaceOnUse" gradientTransform="translate(55.8178 48.5941) rotate(0.779255) scale(2.09127 2.09127)">
<stop offset="0.3498" stop-color="#808080"/>
<stop offset="0.6601"/>
<stop offset="0.7833" stop-color="#4D4D4D"/>
<stop offset="1"/>
</radialGradient>
</defs>
</svg>
